# File created by Blade
# Date/Time:  Tue Jan 27 18:12:51 2015
#---------------------------------------------------------
:version 1.10
:name HOM
:units
  mass 1.0
  length 1.000000
  angle deg
:documentation
     Acclaim Skeleton File
:root
   axis xyz
   order TX TY TZ RX RY RZ
   position 0.000000 0.000000 0.000000
   orientation 0 0 0
:bonedata
   begin
      id 1
      name Spine_dum
      direction 0.000000 1.000000 0.000000
      length 5.195262
      axis 0.0 0.0 0.0 xyz
   end
   begin
      id 2
      name LeftUpLeg_dum
      direction 1.000000 0.000000 0.000000
      length 3.351363
      axis 0.0 0.0 0.0 xyz
   end
   begin
      id 3
      name RightUpLeg_dum
      direction -1.000000 0.000000 0.000000
      length 3.351363
      axis 0.0 0.0 0.0 xyz
   end
   begin
      id 4
      name Spine
      direction 0.000000 1.000000 0.000000
      length 0.000000
      axis 0.0 0.0 0.0 xyz
      dof rx ry rz
   end
   begin
      id 5
      name Spine_dum1
      direction 0.000000 1.000000 0.000000
      length 15.653875
      axis 0.0 0.0 0.0 xyz
   end
   begin
      id 6
      name Spine_dum2
      direction 0.000000 1.000000 0.000000
      length 10.329768
      axis 0.0 0.0 0.0 xyz
   end
   begin
      id 7
      name Spine_dum3
      direction 0.000000 1.000000 0.000000
      length 10.329768
      axis 0.0 0.0 0.0 xyz
   end
   begin
      id 8
      name Head
      direction 0.000000 1.000000 0.000000
      length 4.527550
      axis 0.0 0.0 0.0 xyz
      dof rx ry rz
   end
   begin
      id 9
      name LeftShoulder
      direction 1.000000 0.000000 0.000000
      length 6.996006
      axis 0.0 0.0 -90.0 xyz
      dof rx ry rz
   end
   begin
      id 10
      name LeftArm
      direction 1.000000 0.000000 0.000000
      length 10.209302
      axis 0.0 0.0 -90.0 xyz
      dof rx ry rz
   end
   begin
      id 11
      name LeftForeArm
      direction 1.000000 0.000000 0.000000
      length 8.563163
      axis 0.0 0.0 -90.0 xyz
      dof ry rz rx
   end
   begin
      id 12
      name LeftHand
      direction 0.000000 0.000000 0.000000
      length 0.000000
      axis 0.0 0.0 -90.0 xyz
      dof rx ry rz
   end
   begin
      id 13
      name LeftHand_dum1
      direction 0.000000 0.000000 0.000000
      length 0.000000
      axis 0.0 0.0 -90.0 xyz
   end
   begin
      id 14
      name LeftHand_dum2
      direction 1.000000 0.000000 0.000000
      length 3.937000
      axis 0.0 0.0 -90.0 xyz
   end
   begin
      id 15
      name LeftHandThumb1
      direction 0.000000 0.000000 1.000000
      length 3.937000
      axis 0.0 0.0 -90.0 xyz
      dof rx rz ry
   end
   begin
      id 16
      name RightShoulder
      direction -1.000000 0.000000 0.000000
      length 6.996006
      axis 0.0 0.0 90.0 xyz
      dof rx ry rz
   end
   begin
      id 17
      name RightArm
      direction -1.000000 0.000000 0.000000
      length 10.209302
      axis 0.0 0.0 90.0 xyz
      dof rx ry rz
   end
   begin
      id 18
      name RightForeArm
      direction -1.000000 0.000000 0.000000
      length 8.563163
      axis 0.0 0.0 90.0 xyz
      dof ry rz rx
   end
   begin
      id 19
      name RightHand
      direction 0.000000 0.000000 0.000000
      length 0.000000
      axis 0.0 0.0 90.0 xyz
      dof rx ry rz
   end
   begin
      id 20
      name RightHand_dum1
      direction 0.000000 0.000000 0.000000
      length 0.000000
      axis 0.0 0.0 90.0 xyz
   end
   begin
      id 21
      name RightHand_dum2
      direction -1.000000 0.000000 0.000000
      length 3.937000
      axis 0.0 0.0 90.0 xyz
   end
   begin
      id 22
      name RightHandThumb1
      direction 0.000000 0.000000 1.000000
      length 3.937000
      axis 0.0 0.0 90.0 xyz
      dof rx rz ry
   end
   begin
      id 23
      name LeftUpLeg
      direction 0.000000 -1.000000 0.000000
      length 16.346831
      axis 0.0 0.0 0.0 xyz
      dof rx ry rz
   end
   begin
      id 24
      name LeftLeg
      direction 0.000000 -1.000000 0.000000
      length 13.959795
      axis 0.0 0.0 0.0 xyz
      dof rx ry rz
   end
   begin
      id 25
      name LeftFoot
      direction 0.000000 -0.258819 0.965926
      length 5.165550
      axis 15.0 0.0 0.0 xyz
      dof rx ry rz
   end
   begin
      id 26
      name LeftToeBase
      direction 0.000000 0.000000 1.000000
      length 2.952750
      axis 0.0 0.0 0.0 xyz
      dof rx ry rz
   end
   begin
      id 27
      name RightUpLeg
      direction 0.000000 -1.000000 0.000000
      length 16.346831
      axis 0.0 0.0 0.0 xyz
      dof rx ry rz
   end
   begin
      id 28
      name RightLeg
      direction 0.000000 -1.000000 0.000000
      length 13.959795
      axis 0.0 0.0 0.0 xyz
      dof rx ry rz
   end
   begin
      id 29
      name RightFoot
      direction 0.000000 -0.258819 0.965926
      length 5.165550
      axis 15.0 0.0 0.0 xyz
      dof rx ry rz
   end
   begin
      id 30
      name RightToeBase
      direction 0.000000 0.000000 1.000000
      length 2.952750
      axis 0.0 0.0 0.0 xyz
      dof rx ry rz
   end
:hierarchy
   begin
      root Spine_dum LeftUpLeg_dum RightUpLeg_dum
      Spine_dum Spine
      LeftUpLeg_dum LeftUpLeg
      RightUpLeg_dum RightUpLeg
      Spine Spine_dum1 Spine_dum2 Spine_dum3
      Spine_dum1 Head
      Spine_dum2 LeftShoulder
      Spine_dum3 RightShoulder
      LeftShoulder LeftArm
      LeftArm LeftForeArm
      LeftForeArm LeftHand
      LeftHand LeftHand_dum1 LeftHand_dum2
      LeftHand_dum1 LeftHandThumb1
      RightShoulder RightArm
      RightArm RightForeArm
      RightForeArm RightHand
      RightHand RightHand_dum1 RightHand_dum2
      RightHand_dum1 RightHandThumb1
      LeftUpLeg LeftLeg
      LeftLeg LeftFoot
      LeftFoot LeftToeBase
      RightUpLeg RightLeg
      RightLeg RightFoot
      RightFoot RightToeBase
   end

# File created by Blade
# Date/Time:  Tue Jan 27 18:12:42 2015
# Frame Rate: 120.000 fps
#------------------------------------------------------
:FULLY-SPECIFIED
:DEGREES
1183
root -1.462461 31.795566 -6.598086 5.761252 11.492158 3.849656
Spine -7.893831 -0.797566 -2.477522
Head 9.997832 -19.330653 -1.240894
LeftShoulder -11.537037 16.930979 3.398146
LeftArm 27.573990 41.498430 -66.595552
LeftForeArm -1.364159 -0.000000 15.554767
LeftHand -10.484595 -0.000000 -5.681767
LeftHandThumb1 -26.253704 0.000000 33.147579
RightShoulder 4.985282 23.568832 -14.140288
RightArm 26.033653 23.108230 92.693675
RightForeArm 22.986218 -0.000000 131.670990
RightHand -6.571075 -0.000000 8.313260
RightHandThumb1 -24.326973 -0.000000 -32.862282
LeftUpLeg -2.210640 -3.715371 -1.102666
LeftLeg 1.797440 -0.000000 -0.000000
LeftFoot -17.473943 15.020390 -24.392544
LeftToeBase 8.575052 -0.000000 -0.000000
RightUpLeg 2.309381 -6.413984 -3.879973
RightLeg -3.632193 -0.000000 0.000000
RightFoot -16.421773 -15.688237 10.184443
RightToeBase 5.302355 -0.000000 -0.000000
1184
root -1.464588 31.795381 -6.597917 5.781546 11.580450 3.857231
Spine -7.874884 -0.768892 -2.491382
Head 10.013420 -19.341332 -1.249118
LeftShoulder -11.518123 16.908888 3.410177
LeftArm 27.563107 41.502667 -66.598256
LeftForeArm -1.382777 -0.000000 15.557069
LeftHand -10.496221 0.000000 -5.793284
LeftHandThumb1 -26.253704 0.000000 33.147579
RightShoulder 4.999186 23.723566 -14.139573
RightArm 26.251523 23.502780 92.782171
RightForeArm 23.879825 0.000000 133.125154
RightHand -6.156748 -0.000000 7.984542
RightHandThumb1 -24.326973 -0.000000 -32.862282
LeftUpLeg -2.241369 -3.744871 -1.096040
LeftLeg 1.805929 -0.000000 -0.000000
LeftFoot -17.456068 14.963843 -24.365878
LeftToeBase 8.673372 -0.000000 -0.000000
RightUpLeg 2.317648 -6.441480 -3.874137
RightLeg -3.656810 -0.000000 0.000000
RightFoot -16.430941 -15.727653 10.225815
RightToeBase 5.274028 -0.000000 -0.000000
1185
root -1.466389 31.795508 -6.597157 5.797349 11.668077 3.867047
Spine -7.867456 -0.764329 -2.486980
Head 10.082101 -19.331414 -1.334022
LeftShoulder -11.499695 16.899916 3.400521
LeftArm 27.525016 41.485167 -66.608978
LeftForeArm -1.358717 -0.000000 15.577936
LeftHand -10.554607 -0.000000 -5.839482
LeftHandThumb1 -26.253704 0.000000 33.147579
RightShoulder 5.026768 23.851814 -14.130814
RightArm 26.552022 23.815321 92.892204
RightForeArm 24.313371 -0.000000 134.581450
RightHand -5.723644 -0.000000 8.630163
RightHandThumb1 -24.326973 -0.000000 -32.862282
LeftUpLeg -2.261301 -3.795300 -1.089993
LeftLeg 1.801947 -0.000000 -0.000000
LeftFoot -17.434816 14.900274 -24.427231
LeftToeBase 8.619357 -0.000000 -0.000000
RightUpLeg 2.322970 -6.473783 -3.870727
RightLeg -3.657947 -0.000000 0.000000
RightFoot -16.450942 -15.780137 10.227855
RightToeBase 5.326521 -0.000000 -0.000000
1186
root -1.468078 31.795703 -6.596248 5.815836 11.749255 3.878834
Spine -7.864289 -0.768109 -2.484697
Head 10.161716 -19.290048 -1.418566
LeftShoulder -11.513469 16.916490 3.377008
LeftArm 27.554106 41.477113 -66.576979
LeftForeArm -1.384429 -0.000000 15.569533
LeftHand -10.603359 -0.000000 -5.793731
LeftHandThumb1 -26.253704 0.000000 33.147579
RightShoulder 5.052868 23.929026 -14.128758
RightArm 26.930178 24.172207 93.073289
RightForeArm 25.079527 -0.000000 135.983252
RightHand -5.337926 -0.000000 8.861431
RightHandThumb1 -24.326973 -0.000000 -32.862282
LeftUpLeg -2.276820 -3.846039 -1.088803
LeftLeg 1.790956 -0.000000 -0.000000
LeftFoot -17.398936 14.890128 -24.387841
LeftToeBase 8.620682 -0.000000 -0.000000
RightUpLeg 2.333582 -6.483632 -3.869929
RightLeg -3.683788 -0.000000 0.000000
RightFoot -16.446101 -15.853882 10.239689
RightToeBase 5.281789 -0.000000 -0.000000
1187
root -1.468666 31.795975 -6.596527 5.835662 11.823057 3.894984
Spine -7.860195 -0.761034 -2.484732
Head 10.242784 -19.242058 -1.509914
LeftShoulder -11.510952 16.911994 3.352536
LeftArm 27.566822 41.490465 -66.538033
LeftForeArm -1.490217 -0.000000 15.567820
LeftHand -10.580861 -0.000000 -5.836588
LeftHandThumb1 -26.253704 0.000000 33.147579
RightShoulder 5.057087 24.028474 -14.146662
RightArm 27.292926 24.493749 93.249419
RightForeArm 25.523149 -0.000000 137.353972
RightHand -4.719594 -0.000000 9.954780
RightHandThumb1 -24.326973 -0.000000 -32.862282
LeftUpLeg -2.302419 -3.891806 -1.093872
LeftLeg 1.790541 -0.000000 -0.000000
LeftFoot -17.374851 14.866040 -24.395279
LeftToeBase 8.624334 -0.000000 -0.000000
RightUpLeg 2.327544 -6.520595 -3.876826
RightLeg -3.676139 -0.000000 0.000000
RightFoot -16.467916 -15.893719 10.244895
RightToeBase 5.259403 -0.000000 -0.000000
1188
root -1.469691 31.796400 -6.595416 5.849012 11.895349 3.902095
Spine -7.859324 -0.752360 -2.478982
Head 10.346332 -19.187372 -1.603384
LeftShoulder -11.500495 16.908997 3.331859
LeftArm 27.555502 41.481464 -66.527276
LeftForeArm -1.493581 0.000000 15.568528
LeftHand -10.606209 -0.000000 -5.788670
LeftHandThumb1 -26.253704 0.000000 33.147579
RightShoulder 5.066675 24.135543 -14.162932
RightArm 27.644103 24.892559 93.435698
RightForeArm 26.213648 0.000000 138.670099
RightHand -4.282522 -0.000000 10.010437
RightHandThumb1 -24.326973 -0.000000 -32.862282
LeftUpLeg -2.319840 -3.917587 -1.089550
LeftLeg 1.788179 -0.000000 -0.000000
LeftFoot -17.338051 14.819587 -24.377325
LeftToeBase 8.653931 -0.000000 -0.000000
RightUpLeg 2.305073 -6.640859 -3.871578
RightLeg -3.623517 -0.000000 0.000000
RightFoot -16.495848 -15.849423 10.232571
RightToeBase 5.236803 -0.000000 -0.000000
1189
root -1.469855 31.796782 -6.594028 5.867199 11.975542 3.919079
Spine -7.866344 -0.754844 -2.477993
Head 10.456484 -19.149921 -1.706439
LeftShoulder -11.510734 16.949608 3.287251
LeftArm 27.627664 41.486347 -66.441018
LeftForeArm -1.567286 -0.000000 15.562357
LeftHand -10.633461 -0.000000 -5.799285
LeftHandThumb1 -26.253704 0.000000 33.147579
RightShoulder 5.089718 24.264038 -14.183170
RightArm 27.999421 25.277354 93.624063
RightForeArm 27.086291 -0.000000 139.962932
RightHand -3.662155 0.000000 10.956895
RightHandThumb1 -24.326973 -0.000000 -32.862282
LeftUpLeg -2.336265 -3.970066 -1.097878
LeftLeg 1.783129 -0.000000 -0.000000
LeftFoot -17.318542 14.809464 -24.380001
LeftToeBase 8.658689 -0.000000 -0.000000
RightUpLeg 2.295919 -6.751497 -3.877860
RightLeg -3.599870 -0.000000 0.000000
RightFoot -16.511504 -15.842366 10.201715
RightToeBase 5.274911 -0.000000 -0.000000
1190
root -1.472064 31.797008 -6.591399 5.885810 12.059506 3.924402
Spine -7.880624 -0.776321 -2.475332
Head 10.558690 -19.091417 -1.777386
LeftShoulder -11.542872 16.893222 3.275226
LeftArm 27.614366 41.581196 -66.405266
LeftForeArm -1.696000 -0.000000 15.531542
LeftHand -10.548736 -0.000000 -5.790610
LeftHandThumb1 -26.253704 0.000000 33.147579
RightShoulder 5.098897 24.351769 -14.213089
RightArm 28.395299 25.677923 93.874949
RightForeArm 28.101317 -0.000000 141.164069
RightHand -2.804322 -0.000000 12.404034
RightHandThumb1 -24.326973 -0.000000 -32.862282
LeftUpLeg -2.356610 -4.016713 -1.087639
LeftLeg 1.776349 -0.000000 -0.000000
LeftFoot -17.281229 14.778362 -24.344645
LeftToeBase 8.619996 -0.000000 -0.000000
RightUpLeg 2.303642 -6.798816 -3.869153
RightLeg -3.611191 -0.000000 0.000000
RightFoot -16.524329 -15.862910 10.226561
RightToeBase 5.262608 -0.000000 -0.000000
1191
root -1.473222 31.797651 -6.592101 5.898884 12.106378 3.933315
Spine -7.867001 -0.752363 -2.470837
Head 10.616695 -19.043147 -1.856632
LeftShoulder -11.538116 16.812974 3.254157
LeftArm 27.529793 41.610898 -66.429882
LeftForeArm -1.793627 -0.000000 15.530222
LeftHand -10.574645 -0.000000 -5.770433
LeftHandThumb1 -26.253704 0.000000 33.147579
RightShoulder 5.068097 24.714726 -14.254316
RightArm 28.512096 26.044679 93.980638
RightForeArm 29.184667 0.000000 142.364023
RightHand -2.242857 -0.000000 13.264433
RightHandThumb1 -24.326973 -0.000000 -32.862282
LeftUpLeg -2.375985 -4.036890 -1.089402
LeftLeg 1.781446 -0.000000 -0.000000
LeftFoot -17.262032 14.763638 -24.331278
LeftToeBase 8.643059 -0.000000 -0.000000
RightUpLeg 2.300724 -6.776504 -3.870022
RightLeg -3.615537 -0.000000 0.000000
RightFoot -16.530034 -15.934580 10.244231
RightToeBase 5.291911 -0.000000 -0.000000
